<svg width="24" height="27" viewBox="0 0 24 27" fill="none" xmlns="http://www.w3.org/2000/svg">
<path d="M9 19.125V20.25C9 20.6932 9.0776 21.1321 9.22836 21.5416C9.37913 21.951 9.6001 22.3231 9.87868 22.6365C10.1573 22.9499 10.488 23.1985 10.8519 23.3681C11.2159 23.5377 11.606 23.625 12 23.625C12.394 23.625 12.7841 23.5377 13.1481 23.3681C13.512 23.1985 13.8427 22.9499 14.1213 22.6365C14.3999 22.3231 14.6209 21.951 14.7716 21.5416C14.9224 21.1321 15 20.6932 15 20.25V19.125M18 10.125C18 13.5 20 19.125 20 19.125H4C4 19.125 6 14.625 6 10.125C6 6.4485 8.732 3.375 12 3.375C15.268 3.375 18 6.4485 18 10.125Z" stroke="#001A72" stroke-width="1.5" stroke-linecap="round" stroke-linejoin="round"/>
</svg>
