<svg width="24" height="24" viewBox="0 0 24 24" fill="none" xmlns="http://www.w3.org/2000/svg">
<g clip-path="url(#clip0_35002_2217)">
<path d="M23.5957 13.43H11.5617C10.9168 13.3803 10.2784 13.5866 9.78448 14.0041C9.29058 14.4216 8.98097 15.0169 8.92268 15.661L8.92168 15.67C8.98082 16.3226 9.29664 16.925 9.79973 17.3448C10.3028 17.7647 10.952 17.9676 11.6047 17.909L11.5957 17.91H23.5957C23.6712 17.917 23.7474 17.9088 23.8197 17.886C23.8921 17.8631 23.9591 17.8261 24.0169 17.777C24.0748 17.7279 24.1222 17.6678 24.1565 17.6001C24.1908 17.5325 24.2113 17.4587 24.2167 17.383V13.959C24.1971 13.8127 24.1251 13.6784 24.014 13.5811C23.9029 13.4838 23.7603 13.4301 23.6127 13.43H23.5957ZM11.5617 17.068C11.2789 17.068 11.0024 16.9841 10.7672 16.827C10.5321 16.6699 10.3488 16.4465 10.2405 16.1852C10.1323 15.9239 10.104 15.6364 10.1592 15.359C10.2143 15.0816 10.3505 14.8268 10.5505 14.6268C10.7505 14.4268 11.0053 14.2907 11.2827 14.2355C11.5601 14.1803 11.8476 14.2086 12.1089 14.3169C12.3702 14.4251 12.5936 14.6084 12.7507 14.8435C12.9078 15.0787 12.9917 15.3552 12.9917 15.638V15.642C12.9917 16.43 12.3527 17.068 11.5657 17.068H11.5617ZM3.29468 0V6.404H4.66268V3.668C4.80068 3.702 4.96068 3.724 5.12468 3.73H5.12868C5.62299 3.72868 6.0967 3.5318 6.44633 3.18236C6.79596 2.83292 6.99309 2.35931 6.99468 1.865C6.99137 1.70265 6.96922 1.54124 6.92868 1.384L6.93168 1.399H14.4237C14.3876 1.55053 14.3668 1.70531 14.3617 1.861V1.865C14.363 2.35932 14.5599 2.83302 14.9093 3.18265C15.2588 3.53228 15.7324 3.72942 16.2267 3.731C16.3947 3.725 16.5557 3.703 16.7097 3.665L16.6937 3.668V6.404H18.0947V0H3.29468ZM18.6837 5.626H20.4247C20.2943 5.24713 20.0657 4.90961 19.7623 4.64786C19.4589 4.38611 19.0916 4.20949 18.6977 4.136L18.6837 4.134V5.626Z" fill="white"/>
<path d="M11.471 12.6861H23.409V9.04912C23.3579 8.5096 23.0969 8.01177 22.6822 7.66291C22.2675 7.31404 21.7323 7.14209 21.192 7.18412H21.199H2.239C2.22286 7.1665 2.20078 7.15546 2.177 7.15312C2.04554 7.09135 1.93301 6.99554 1.85107 6.87562C1.76913 6.75569 1.72077 6.61603 1.711 6.47112V6.46912C1.72692 6.28925 1.79742 6.11854 1.91305 5.97986C2.02868 5.84117 2.18393 5.74112 2.358 5.69312L2.364 5.69212V4.10712C1.057 4.16912 0 6.03412 0 8.36612V22.1381C0.0515912 22.677 0.312511 23.1741 0.72669 23.5226C1.14087 23.8712 1.67525 24.0433 2.215 24.0021H2.208H21.168C21.7054 24.0418 22.2371 23.8698 22.6494 23.5228C23.0618 23.1758 23.3222 22.6814 23.375 22.1451L23.376 22.1371V18.5001H11.504C9.577 18.5001 8.022 17.1941 8.022 15.6091C8.022 13.9931 9.576 12.6871 11.472 12.6871L11.471 12.6861Z" fill="white"/>
</g>
<defs>
<clipPath id="clip0_35002_2217">
<rect width="24" height="24" fill="white"/>
</clipPath>
</defs>
</svg>
