<svg width="36" height="36" viewBox="0 0 36 36" fill="none" xmlns="http://www.w3.org/2000/svg">
<g opacity="0.15">
<path d="M18.0756 31.4998C18.0504 31.4999 18.0252 31.5 18 31.5C17.9748 31.5 17.9496 31.4999 17.9244 31.4998C17.9499 31.4749 17.9751 31.4497 18 31.4242C18.0249 31.4497 18.0501 31.4749 18.0756 31.4998Z" fill="#C0BFBC"/>
<path fill-rule="evenodd" clip-rule="evenodd" d="M26.9903 28.0711C26.9967 27.9649 27 27.8578 27 27.75C27 24.8505 24.6495 22.5 21.75 22.5H14.25C11.3505 22.5 9 24.8505 9 27.75C9 27.8578 9.00325 27.9649 9.00966 28.0711C6.24218 25.5989 4.5 22.0029 4.5 18C4.5 10.5442 10.5442 4.5 18 4.5C25.4558 4.5 31.5 10.5442 31.5 18C31.5 22.0029 29.7578 25.5989 26.9903 28.0711ZM18 18C20.4853 18 22.5 15.9853 22.5 13.5C22.5 11.0147 20.4853 9 18 9C15.5147 9 13.5 11.0147 13.5 13.5C13.5 15.9853 15.5147 18 18 18Z" fill="#C0BFBC"/>
</g>
<path d="M27 28.0625C27 25.6328 25.2424 22.4999 22.5 22.5H13.5C10.7576 22.4999 9 25.6328 9 28.0625M4.5 18C4.5 10.5442 10.5442 4.5 18 4.5C25.4558 4.5 31.5 10.5442 31.5 18C31.5 25.4558 25.4558 31.5 18 31.5C10.5442 31.5 4.5 25.4558 4.5 18ZM22.5 13.5C22.5 15.9853 20.4853 18 18 18C15.5147 18 13.5 15.9853 13.5 13.5C13.5 11.0147 15.5147 9 18 9C20.4853 9 22.5 11.0147 22.5 13.5Z" stroke="#C0BFBC" stroke-width="1.5"/>
</svg>
